<svg width="53" height="55" viewBox="0 0 53 55" fill="none" xmlns="http://www.w3.org/2000/svg">
<path d="M45.6564 4.45558L45.164 4.01385C40.9983 0.296734 35.1924 -0.961275 30.0857 0.925493C29.4273 1.16763 28.7884 1.45834 28.1745 1.79524C25.9639 3.05134 24.1082 4.84008 22.7725 7.0025C21.4367 9.16492 20.6621 11.634 20.5177 14.1904C20.3691 17.2051 21.0749 20.4149 19.8467 23.1418C18.2502 26.686 14.0618 28.0323 10.3188 29.0204C6.57578 30.0086 2.39932 31.3747 0.806808 34.919C-0.184007 37.1421 0.116835 39.7988 0.987393 42.1203C3.29018 48.2767 9.38677 52.5752 15.7723 53.7107C22.1578 54.8463 28.7212 53.1643 34.3566 50.1486C42.268 45.9102 48.8195 38.8142 51.3631 30.1011C53.9066 21.3881 51.9922 11.1424 45.6564 4.45558Z" fill="#87DFB0"/>
<path d="M35.8295 19.2137L39.536 22.9184M38.213 15.9499L28.1908 25.9722C27.6729 26.4893 27.3197 27.1482 27.1758 27.8657L26.25 32.4997L30.884 31.5722C31.6015 31.4287 32.2595 31.0769 32.7775 30.5589L42.7998 20.5367C43.1009 20.2355 43.3398 19.878 43.5028 19.4845C43.6658 19.091 43.7497 18.6692 43.7497 18.2433C43.7497 17.8174 43.6658 17.3957 43.5028 17.0022C43.3398 16.6087 43.1009 16.2511 42.7998 15.9499C42.4986 15.6488 42.141 15.4099 41.7475 15.2469C41.354 15.0839 40.9323 15 40.5064 15C40.0805 15 39.6587 15.0839 39.2652 15.2469C38.8717 15.4099 38.5142 15.6488 38.213 15.9499V15.9499Z" stroke="#184367" stroke-width="3" stroke-linecap="round" stroke-linejoin="round"/>
<path d="M40.25 35.9998V41.2498C40.25 42.178 39.8813 43.0683 39.2249 43.7246C38.5685 44.381 37.6783 44.7498 36.75 44.7498H17.5C16.5717 44.7498 15.6815 44.381 15.0251 43.7246C14.3687 43.0683 14 42.178 14 41.2498V21.9998C14 21.0715 14.3687 20.1813 15.0251 19.5249C15.6815 18.8685 16.5717 18.4998 17.5 18.4998H22.75" stroke="#184367" stroke-width="3" stroke-linecap="round" stroke-linejoin="round"/>
</svg>
