<svg width="53" height="55" viewBox="0 0 53 55" fill="none" xmlns="http://www.w3.org/2000/svg">
<path d="M45.6564 4.45558L45.164 4.01385C40.9983 0.296734 35.1924 -0.961275 30.0857 0.925493C29.4273 1.16764 28.7884 1.45834 28.1745 1.79524C25.9639 3.05134 24.1082 4.84008 22.7725 7.0025C21.4367 9.16492 20.6621 11.634 20.5177 14.1904C20.3691 17.2051 21.0749 20.4149 19.8467 23.1418C18.2502 26.686 14.0618 28.0322 10.3188 29.0204C6.57578 30.0086 2.39932 31.3747 0.806809 34.919C-0.184007 37.1421 0.116836 39.7988 0.987394 42.1203C3.29018 48.2767 9.38677 52.5752 15.7723 53.7107C22.1578 54.8463 28.7212 53.1643 34.3566 50.1486C42.268 45.9102 48.8195 38.8142 51.3631 30.1011C53.9066 21.3881 51.9922 11.1424 45.6564 4.45558Z" fill="#87DFB0"/>
<path d="M36.2188 21.7969V19.8281C36.2188 19.6477 36.0711 19.5 35.8906 19.5H20.1406C19.9602 19.5 19.8125 19.6477 19.8125 19.8281V21.7969C19.8125 21.9773 19.9602 22.125 20.1406 22.125H35.8906C36.0711 22.125 36.2188 21.9773 36.2188 21.7969ZM20.1406 25.4062C19.9602 25.4062 19.8125 25.5539 19.8125 25.7344V27.7031C19.8125 27.8836 19.9602 28.0312 20.1406 28.0312H27.6875C27.868 28.0312 28.0156 27.8836 28.0156 27.7031V25.7344C28.0156 25.5539 27.868 25.4062 27.6875 25.4062H20.1406ZM35.5625 30.1641C30.6693 30.1641 26.7031 34.1303 26.7031 39.0234C26.7031 43.9166 30.6693 47.8828 35.5625 47.8828C40.4557 47.8828 44.4219 43.9166 44.4219 39.0234C44.4219 34.1303 40.4557 30.1641 35.5625 30.1641ZM39.9717 43.4326C38.7945 44.6098 37.2277 45.2578 35.5625 45.2578C33.8973 45.2578 32.3305 44.6098 31.1533 43.4326C29.9762 42.2555 29.3281 40.6887 29.3281 39.0234C29.3281 37.3582 29.9762 35.7914 31.1533 34.6143C32.3305 33.4371 33.8973 32.7891 35.5625 32.7891C37.2277 32.7891 38.7945 33.4371 39.9717 34.6143C41.1488 35.7914 41.7969 37.3582 41.7969 39.0234C41.7969 40.6887 41.1488 42.2555 39.9717 43.4326ZM34.25 42.3047C34.25 42.6528 34.3883 42.9866 34.6344 43.2328C34.8806 43.4789 35.2144 43.6172 35.5625 43.6172C35.9106 43.6172 36.2444 43.4789 36.4906 43.2328C36.7367 42.9866 36.875 42.6528 36.875 42.3047C36.875 41.9566 36.7367 41.6228 36.4906 41.3766C36.2444 41.1305 35.9106 40.9922 35.5625 40.9922C35.2144 40.9922 34.8806 41.1305 34.6344 41.3766C34.3883 41.6228 34.25 41.9566 34.25 42.3047ZM34.7422 39.6797H36.3828C36.5633 39.6797 36.7109 39.532 36.7109 39.3516V34.7578C36.7109 34.5773 36.5633 34.4297 36.3828 34.4297H34.7422C34.5617 34.4297 34.4141 34.5773 34.4141 34.7578V39.3516C34.4141 39.532 34.5617 39.6797 34.7422 39.6797ZM26.0469 43.9453H16.5312V15.0703H39.5V29.1797C39.5 29.3602 39.6477 29.5078 39.8281 29.5078H42.125C42.3055 29.5078 42.4531 29.3602 42.4531 29.1797V13.4297C42.4531 12.7037 41.8666 12.1172 41.1406 12.1172H14.8906C14.1646 12.1172 13.5781 12.7037 13.5781 13.4297V45.5859C13.5781 46.3119 14.1646 46.8984 14.8906 46.8984H26.0469C26.2273 46.8984 26.375 46.7508 26.375 46.5703V44.2734C26.375 44.093 26.2273 43.9453 26.0469 43.9453Z" fill="#184367"/>
</svg>
