<svg width="53" height="55" viewBox="0 0 53 55" fill="none" xmlns="http://www.w3.org/2000/svg">
<path d="M45.6564 4.45558L45.164 4.01385C40.9983 0.296735 35.1924 -0.961275 30.0857 0.925493C29.4273 1.16763 28.7884 1.45834 28.1745 1.79524C25.9639 3.05134 24.1082 4.84008 22.7725 7.0025C21.4367 9.16492 20.6621 11.634 20.5177 14.1904C20.3691 17.2051 21.0749 20.4149 19.8467 23.1418C18.2502 26.686 14.0618 28.0323 10.3188 29.0204C6.57578 30.0086 2.39932 31.3747 0.806809 34.919C-0.184005 37.1421 0.116836 39.7988 0.987394 42.1203C3.29018 48.2767 9.38677 52.5752 15.7723 53.7107C22.1578 54.8463 28.7212 53.1643 34.3566 50.1486C42.268 45.9102 48.8195 38.8142 51.3631 30.1011C53.9066 21.3881 51.9922 11.1424 45.6564 4.45558Z" fill="#87DFB0"/>
<path d="M22 17.75H18.5C17.5717 17.75 16.6815 18.1187 16.0251 18.7751C15.3687 19.4315 15 20.3217 15 21.25V42.25C15 43.1783 15.3687 44.0685 16.0251 44.7249C16.6815 45.3813 17.5717 45.75 18.5 45.75H28.4697M39.5 30V21.25C39.5 20.3217 39.1313 19.4315 38.4749 18.7751C37.8185 18.1187 36.9283 17.75 36 17.75H32.5" stroke="#184367" stroke-width="3" stroke-linecap="round" stroke-linejoin="round"/>
<path d="M29 14.25H25.5C23.567 14.25 22 15.817 22 17.75C22 19.683 23.567 21.25 25.5 21.25H29C30.933 21.25 32.5 19.683 32.5 17.75C32.5 15.817 30.933 14.25 29 14.25Z" stroke="#184367" stroke-width="3" stroke-linecap="round" stroke-linejoin="round"/>
<path d="M22 28.25H29M22 35.25H27.25" stroke="#184367" stroke-width="3" stroke-linecap="round" stroke-linejoin="round"/>
<path d="M36.875 44C39.2912 44 41.25 42.0412 41.25 39.625C41.25 37.2088 39.2912 35.25 36.875 35.25C34.4588 35.25 32.5 37.2088 32.5 39.625C32.5 42.0412 34.4588 44 36.875 44Z" stroke="#184367" stroke-width="3" stroke-linecap="round" stroke-linejoin="round"/>
<path d="M40.375 43.125L44.75 47.5" stroke="#184367" stroke-width="3" stroke-linecap="round" stroke-linejoin="round"/>
</svg>
